<svg width="80" height="86" viewBox="0 0 80 86" fill="none" xmlns="http://www.w3.org/2000/svg">
<path d="M20 71.9696H28.7009C29.8354 71.9696 30.9629 72.1144 32.0627 72.4039L41.2563 74.8003C43.2511 75.3216 45.3292 75.3722 47.3449 74.9523L57.5099 72.8311C60.1951 72.27 62.6652 70.8908 64.6011 68.8709L71.7929 61.3669C73.8467 59.2276 73.8467 55.7561 71.7929 53.6132C69.9438 51.6838 67.0157 51.4666 64.9237 53.1028L56.542 59.662C55.3416 60.6031 53.881 61.1099 52.3788 61.1099H44.285L49.4368 61.1097C52.3406 61.1097 54.6928 58.6554 54.6928 55.6256V54.5287C54.6928 52.0129 53.0518 49.8193 50.7135 49.2111L42.7619 47.137C41.4679 46.8003 40.1426 46.6302 38.8104 46.6302C35.5944 46.6302 29.7729 49.4862 29.7729 49.4862L20 53.8699M6.66663 52.3508L6.66663 73.0881C6.66663 75.0905 6.66663 76.0917 7.02994 76.8565C7.34952 77.5293 7.85945 78.0763 8.48666 78.419C9.1997 78.8087 10.1331 78.8087 12 78.8087H14.6666C16.5335 78.8087 17.4669 78.8087 18.1799 78.419C18.8071 78.0763 19.3171 77.5293 19.6366 76.8565C20 76.0917 20 75.0905 20 73.0881V52.3508C20 50.3484 20 49.3472 19.6366 48.5824C19.3171 47.9096 18.8071 47.3627 18.1799 47.0199C17.4669 46.6302 16.5335 46.6302 14.6666 46.6302H12C10.1331 46.6302 9.1997 46.6302 8.48666 47.0199C7.85945 47.3626 7.34952 47.9096 7.02994 48.5824C6.66663 49.3472 6.66663 50.3484 6.66663 52.3508ZM57.3045 12.9937C55.3151 8.52859 50.7286 6.16306 46.2681 8.44626C41.8076 10.7295 39.9073 16.1441 41.7748 20.8974C42.929 23.8351 46.2358 29.5398 48.5936 33.4692C49.4648 34.9211 49.9004 35.6471 50.5366 36.0718C51.0823 36.436 51.7655 36.6324 52.4079 36.6096C53.1569 36.583 53.8725 36.188 55.3038 35.3978C59.1774 33.2593 64.7004 30.0924 67.0694 28.1673C70.9024 25.0524 71.8519 19.3269 68.9822 14.9745C66.1125 10.622 61.1088 10.1937 57.3045 12.9937Z" stroke="#FFFBFB" stroke-width="2" stroke-linecap="round" stroke-linejoin="round"/>
</svg>
