<svg width="43" height="43" viewBox="0 0 43 43" fill="none" xmlns="http://www.w3.org/2000/svg">
<path d="M34.0417 14.3333L39.4167 8.95834M39.4167 8.95834L34.0417 3.58334M39.4167 8.95834L28.6667 8.95834M22.3958 5.375H13.975C10.9647 5.375 9.45958 5.375 8.3098 5.96084C7.29843 6.47616 6.47616 7.29843 5.96084 8.3098C5.375 9.45958 5.375 10.9647 5.375 13.975V29.025C5.375 32.0353 5.375 33.5404 5.96084 34.6902C6.47616 35.7016 7.29843 36.5238 8.3098 37.0392C9.45958 37.625 10.9647 37.625 13.975 37.625H30.4583C32.1245 37.625 32.9576 37.625 33.6412 37.4419C35.496 36.9448 36.9448 35.496 37.4419 33.6412C37.625 32.9576 37.625 32.1245 37.625 30.4583M18.8125 15.2292C18.8125 17.2082 17.2082 18.8125 15.2292 18.8125C13.2501 18.8125 11.6458 17.2082 11.6458 15.2292C11.6458 13.2501 13.2501 11.6458 15.2292 11.6458C17.2082 11.6458 18.8125 13.2501 18.8125 15.2292ZM26.8572 21.3534L11.7016 35.1311C10.8492 35.906 10.423 36.2935 10.3853 36.6292C10.3526 36.9201 10.4641 37.2087 10.684 37.402C10.9377 37.625 11.5138 37.625 12.6658 37.625H29.4836C32.0621 37.625 33.3514 37.625 34.364 37.1918C35.6352 36.648 36.648 35.6352 37.1918 34.364C37.625 33.3514 37.625 32.0621 37.625 29.4836C37.625 28.6161 37.625 28.1823 37.5302 27.7783C37.411 27.2706 37.1824 26.795 36.8604 26.3848C36.6042 26.0584 36.2655 25.7874 35.588 25.2454L30.5763 21.236C29.8982 20.6936 29.5592 20.4224 29.1859 20.3267C28.8568 20.2423 28.5106 20.2532 28.1875 20.3582C27.8209 20.4772 27.4996 20.7693 26.8572 21.3534Z" stroke="#FFF6F6" stroke-width="2" stroke-linecap="round" stroke-linejoin="round"/>
</svg>
