<svg width="80" height="75" viewBox="0 0 80 75" fill="none" xmlns="http://www.w3.org/2000/svg">
<path d="M59.1493 8.7294C62.3652 5.63688 67.6786 5.59688 70.9477 8.64057C74.1273 11.6009 74.1865 16.3832 71.0811 19.4109L61.8189 28.4412C61.0929 29.1491 60.7299 29.503 60.5062 29.9175C60.3082 30.2844 60.1903 30.6843 60.1595 31.0939C60.1247 31.5566 60.2429 32.0335 60.4792 32.9871L66.2389 56.2243C66.4815 57.2032 66.6028 57.6926 66.5637 58.1661C66.529 58.5851 66.4033 58.9932 66.1941 59.3657C65.9578 59.7865 65.5764 60.1417 64.8134 60.852L63.5775 62.0027C61.557 63.8838 60.5467 64.8244 59.5128 64.9947C58.6099 65.1433 57.6811 64.9392 56.945 64.4303C56.102 63.8475 55.6502 62.5856 54.7466 60.0618L48.0474 41.3502L36.8963 51.7322C36.2307 52.352 35.8979 52.6618 35.6753 53.0267C35.478 53.35 35.3448 53.7036 35.2819 54.0707C35.2109 54.4852 35.2629 54.9207 35.3668 55.7917L35.9792 60.923C36.0832 61.794 36.1351 62.2295 36.0641 62.6439C36.0012 63.0111 35.868 63.3647 35.6708 63.688C35.4482 64.0529 35.1153 64.3627 34.4497 64.9824L33.7914 65.5954C32.2145 67.0635 31.4261 67.7976 30.5499 68.0102C29.7814 68.1966 28.9667 68.1215 28.2524 67.7984C27.438 67.4299 26.8195 66.5661 25.5825 64.8386L20.3548 57.5378C20.1338 57.2292 20.0233 57.0748 19.895 56.9349C19.7811 56.8106 19.6567 56.6948 19.5232 56.5887C19.3729 56.4693 19.2071 56.3664 18.8756 56.1606L11.034 51.2934C9.1785 50.1417 8.25075 49.5659 7.85502 48.8077C7.50792 48.1427 7.42724 47.3841 7.62752 46.6686C7.85586 45.8529 8.64429 45.1188 10.2212 43.6507L10.8795 43.0378C11.5451 42.418 11.8779 42.1082 12.2699 41.9009C12.6171 41.7173 12.9969 41.5932 13.3912 41.5347C13.8363 41.4686 14.3041 41.517 15.2397 41.6138L20.751 42.1839C21.6866 42.2807 22.1544 42.3291 22.5995 42.263C22.9938 42.2044 23.3736 42.0804 23.7208 41.8967C24.1128 41.6895 24.4456 41.3796 25.1112 40.7599L36.2623 30.3779L16.1647 24.1407C13.4539 23.2994 12.0985 22.8788 11.4726 22.0939C10.9259 21.4085 10.7067 20.5438 10.8664 19.7032C11.0493 18.7405 12.0595 17.8 14.08 15.9188L15.3159 14.7682C16.0789 14.0578 16.4604 13.7026 16.9123 13.4826C17.3124 13.2879 17.7507 13.1708 18.2008 13.1386C18.7093 13.1021 19.235 13.2151 20.2864 13.441L45.1502 18.783C46.1833 19.005 46.6999 19.116 47.1987 19.083C47.6802 19.0511 48.1486 18.9222 48.5714 18.7052C49.0093 18.4805 49.3781 18.1259 50.1156 17.4166L59.1493 8.7294Z" stroke="#FFFEFE" stroke-width="2" stroke-linecap="round" stroke-linejoin="round"/>
</svg>
