<svg width="80" height="86" viewBox="0 0 80 86" fill="none" xmlns="http://www.w3.org/2000/svg">
<path d="M60 46.6302L55.6678 23.3966C55.4258 22.0988 55.3048 21.4499 55.0106 20.9214C54.7505 20.4542 54.3944 20.0569 53.9694 19.7597C53.4887 19.4235 52.889 19.2682 51.6895 18.9576L6.66663 7.30084M6.66663 7.30084L17.5342 55.5932C17.8237 56.8798 17.9685 57.5231 18.2819 58.0387C18.559 58.4946 18.9295 58.8765 19.365 59.1555C19.8577 59.4711 20.4627 59.6009 21.6727 59.8605L43.3333 64.5072M6.66663 7.30084L31.9533 34.4238M53.7712 74.7637L69.5621 57.8261C70.8821 56.4102 71.5421 55.7022 71.7894 54.8859C72.007 54.1678 72.007 53.3942 71.7894 52.6761C71.5421 51.8598 70.8821 51.1518 69.5621 49.7359L67.1045 47.0999C65.7845 45.684 65.1244 44.976 64.3634 44.7108C63.6939 44.4775 62.9727 44.4775 62.3032 44.7108C61.5421 44.976 60.8821 45.684 59.5621 47.0999L43.7712 64.0375C42.4511 65.4534 41.7911 66.1614 41.5438 66.9777C41.3263 67.6958 41.3263 68.4694 41.5438 69.1875C41.7911 70.0038 42.4511 70.7118 43.7712 72.1277L46.2287 74.7637C47.5488 76.1796 48.2088 76.8876 48.9699 77.1528C49.6394 77.3861 50.3605 77.3861 51.03 77.1528C51.7911 76.8876 52.4511 76.1796 53.7712 74.7637ZM43.3333 39.4794C43.3333 43.4287 40.3485 46.6302 36.6666 46.6302C32.9847 46.6302 30 43.4287 30 39.4794C30 35.5301 32.9847 32.3286 36.6666 32.3286C40.3485 32.3286 43.3333 35.5301 43.3333 39.4794Z" stroke="#FFFBFB" stroke-width="2" stroke-linecap="round" stroke-linejoin="round"/>
</svg>
