<svg width="80" height="87" viewBox="0 0 80 87" fill="none" xmlns="http://www.w3.org/2000/svg">
<path d="M56.6667 32.5424L38.5523 52.1919C37.8923 52.9078 37.5622 53.2658 37.1817 53.3999C36.847 53.5179 36.4864 53.5179 36.1516 53.3999C35.7711 53.2658 35.4411 52.9078 34.781 52.1919L28.5523 45.4352C27.8923 44.7193 27.5622 44.3613 27.1817 44.2272C26.847 44.1092 26.4864 44.1092 26.1516 44.2272C25.7711 44.3613 25.4411 44.7193 24.781 45.4352L10 61.4689M56.6667 32.5424H43.3333M56.6667 32.5424V47.0057M26 75.9322H54C59.6005 75.9322 62.4008 75.9322 64.5399 74.7499C66.4215 73.7099 67.9513 72.0505 68.9101 70.0094C70 67.689 70 64.6514 70 58.5763V28.2034C70 22.1282 70 19.0907 68.9101 16.7703C67.9513 14.7292 66.4215 13.0697 64.5399 12.0298C62.4008 10.8475 59.6005 10.8475 54 10.8475H26C20.3995 10.8475 17.5992 10.8475 15.4601 12.0298C13.5785 13.0697 12.0487 14.7292 11.0899 16.7703C10 19.0907 10 22.1282 10 28.2034V58.5763C10 64.6514 10 67.689 11.0899 70.0094C12.0487 72.0505 13.5785 73.7099 15.4601 74.7499C17.5992 75.9322 20.3995 75.9322 26 75.9322Z" stroke="#FFF9F9" stroke-width="2" stroke-linecap="round" stroke-linejoin="round"/>
</svg>
